<mxfile host="app.diagrams.net" agent="Mozilla/5.0 (Windows NT 10.0; Win64; x64) AppleWebKit/537.36 (KHTML, like Gecko) Chrome/132.0.0.0 Safari/537.36 Edg/132.0.0.0" version="26.0.11">
  <diagram name="Page-1" id="edf60f1a-56cd-e834-aa8a-f176f3a09ee4">
    <mxGraphModel dx="1181" dy="633" grid="1" gridSize="10" guides="1" tooltips="1" connect="1" arrows="1" fold="1" page="1" pageScale="1" pageWidth="1100" pageHeight="850" background="none" math="0" shadow="0">
      <root>
        <mxCell id="0" />
        <mxCell id="1" parent="0" />
        <mxCell id="RQYkobvXV-19EqAcjDfM-34" value="报价模型训练成果" style="shape=note;whiteSpace=wrap;html=1;backgroundOutline=1;darkOpacity=0.05;fillColor=#FFF7BC;strokeColor=#FFF7BC;align=left;verticalAlign=top;" vertex="1" parent="1">
          <mxGeometry x="40" y="354.5" width="220" height="295.5" as="geometry" />
        </mxCell>
        <mxCell id="RQYkobvXV-19EqAcjDfM-9" style="edgeStyle=orthogonalEdgeStyle;rounded=0;orthogonalLoop=1;jettySize=auto;html=1;exitX=0.5;exitY=1;exitDx=0;exitDy=0;" edge="1" parent="1" source="RQYkobvXV-19EqAcjDfM-2" target="RQYkobvXV-19EqAcjDfM-3">
          <mxGeometry relative="1" as="geometry" />
        </mxCell>
        <mxCell id="RQYkobvXV-19EqAcjDfM-2" value="开始" style="rounded=1;whiteSpace=wrap;html=1;" vertex="1" parent="1">
          <mxGeometry x="370" y="300" width="50" height="20" as="geometry" />
        </mxCell>
        <mxCell id="RQYkobvXV-19EqAcjDfM-14" style="edgeStyle=orthogonalEdgeStyle;rounded=0;orthogonalLoop=1;jettySize=auto;html=1;exitX=0.5;exitY=1;exitDx=0;exitDy=0;entryX=0.5;entryY=0;entryDx=0;entryDy=0;" edge="1" parent="1" source="RQYkobvXV-19EqAcjDfM-3" target="RQYkobvXV-19EqAcjDfM-4">
          <mxGeometry relative="1" as="geometry" />
        </mxCell>
        <mxCell id="RQYkobvXV-19EqAcjDfM-15" value="是" style="edgeLabel;html=1;align=center;verticalAlign=middle;resizable=0;points=[];" vertex="1" connectable="0" parent="RQYkobvXV-19EqAcjDfM-14">
          <mxGeometry x="-0.3143" y="-2" relative="1" as="geometry">
            <mxPoint as="offset" />
          </mxGeometry>
        </mxCell>
        <mxCell id="RQYkobvXV-19EqAcjDfM-16" style="edgeStyle=orthogonalEdgeStyle;rounded=0;orthogonalLoop=1;jettySize=auto;html=1;exitX=1;exitY=0.5;exitDx=0;exitDy=0;entryX=0;entryY=0.5;entryDx=0;entryDy=0;" edge="1" parent="1" source="RQYkobvXV-19EqAcjDfM-3" target="RQYkobvXV-19EqAcjDfM-8">
          <mxGeometry relative="1" as="geometry" />
        </mxCell>
        <mxCell id="RQYkobvXV-19EqAcjDfM-17" value="否" style="edgeLabel;html=1;align=center;verticalAlign=middle;resizable=0;points=[];" vertex="1" connectable="0" parent="RQYkobvXV-19EqAcjDfM-16">
          <mxGeometry x="-0.019" y="-1" relative="1" as="geometry">
            <mxPoint x="-3" as="offset" />
          </mxGeometry>
        </mxCell>
        <mxCell id="RQYkobvXV-19EqAcjDfM-3" value="D 日行情数据不为空？" style="rhombus;whiteSpace=wrap;html=1;" vertex="1" parent="1">
          <mxGeometry x="325" y="343" width="140" height="80" as="geometry" />
        </mxCell>
        <mxCell id="RQYkobvXV-19EqAcjDfM-11" style="edgeStyle=orthogonalEdgeStyle;rounded=0;orthogonalLoop=1;jettySize=auto;html=1;exitX=0.5;exitY=1;exitDx=0;exitDy=0;" edge="1" parent="1" source="RQYkobvXV-19EqAcjDfM-4" target="RQYkobvXV-19EqAcjDfM-5">
          <mxGeometry relative="1" as="geometry" />
        </mxCell>
        <mxCell id="RQYkobvXV-19EqAcjDfM-20" value="是" style="edgeLabel;html=1;align=center;verticalAlign=middle;resizable=0;points=[];" vertex="1" connectable="0" parent="RQYkobvXV-19EqAcjDfM-11">
          <mxGeometry x="-0.4718" y="1" relative="1" as="geometry">
            <mxPoint as="offset" />
          </mxGeometry>
        </mxCell>
        <mxCell id="RQYkobvXV-19EqAcjDfM-18" style="edgeStyle=orthogonalEdgeStyle;rounded=0;orthogonalLoop=1;jettySize=auto;html=1;exitX=1;exitY=0.5;exitDx=0;exitDy=0;entryX=1;entryY=0.5;entryDx=0;entryDy=0;" edge="1" parent="1" source="RQYkobvXV-19EqAcjDfM-4" target="RQYkobvXV-19EqAcjDfM-7">
          <mxGeometry relative="1" as="geometry">
            <Array as="points">
              <mxPoint x="540" y="498" />
              <mxPoint x="540" y="710" />
            </Array>
          </mxGeometry>
        </mxCell>
        <mxCell id="RQYkobvXV-19EqAcjDfM-19" value="否" style="edgeLabel;html=1;align=center;verticalAlign=middle;resizable=0;points=[];" vertex="1" connectable="0" parent="RQYkobvXV-19EqAcjDfM-18">
          <mxGeometry x="-0.8461" relative="1" as="geometry">
            <mxPoint as="offset" />
          </mxGeometry>
        </mxCell>
        <mxCell id="RQYkobvXV-19EqAcjDfM-4" value="T、T+1 时刻行情数据不为空？" style="rhombus;whiteSpace=wrap;html=1;" vertex="1" parent="1">
          <mxGeometry x="300" y="457" width="190" height="80" as="geometry" />
        </mxCell>
        <mxCell id="RQYkobvXV-19EqAcjDfM-12" style="edgeStyle=orthogonalEdgeStyle;rounded=0;orthogonalLoop=1;jettySize=auto;html=1;exitX=0.5;exitY=1;exitDx=0;exitDy=0;entryX=0.5;entryY=0;entryDx=0;entryDy=0;" edge="1" parent="1" source="RQYkobvXV-19EqAcjDfM-5" target="RQYkobvXV-19EqAcjDfM-6">
          <mxGeometry relative="1" as="geometry" />
        </mxCell>
        <mxCell id="RQYkobvXV-19EqAcjDfM-5" value="使用 T、T+1 时刻行情数据报单，满足条件：避免成交、价差最低" style="rounded=0;whiteSpace=wrap;html=1;" vertex="1" parent="1">
          <mxGeometry x="300" y="571" width="190" height="50" as="geometry" />
        </mxCell>
        <mxCell id="RQYkobvXV-19EqAcjDfM-13" style="edgeStyle=orthogonalEdgeStyle;rounded=0;orthogonalLoop=1;jettySize=auto;html=1;exitX=0.5;exitY=1;exitDx=0;exitDy=0;entryX=0.5;entryY=0;entryDx=0;entryDy=0;" edge="1" parent="1" source="RQYkobvXV-19EqAcjDfM-6" target="RQYkobvXV-19EqAcjDfM-7">
          <mxGeometry relative="1" as="geometry" />
        </mxCell>
        <mxCell id="RQYkobvXV-19EqAcjDfM-6" value="T = T + 1" style="rounded=0;whiteSpace=wrap;html=1;" vertex="1" parent="1">
          <mxGeometry x="335" y="645" width="120" height="30" as="geometry" />
        </mxCell>
        <mxCell id="RQYkobvXV-19EqAcjDfM-21" style="edgeStyle=orthogonalEdgeStyle;rounded=0;orthogonalLoop=1;jettySize=auto;html=1;exitX=0;exitY=0.5;exitDx=0;exitDy=0;entryX=0;entryY=0.5;entryDx=0;entryDy=0;" edge="1" parent="1" source="RQYkobvXV-19EqAcjDfM-7" target="RQYkobvXV-19EqAcjDfM-3">
          <mxGeometry relative="1" as="geometry">
            <Array as="points">
              <mxPoint x="280" y="710" />
              <mxPoint x="280" y="383" />
            </Array>
          </mxGeometry>
        </mxCell>
        <mxCell id="RQYkobvXV-19EqAcjDfM-7" value="D = D + 1" style="rounded=0;whiteSpace=wrap;html=1;" vertex="1" parent="1">
          <mxGeometry x="335" y="695" width="120" height="30" as="geometry" />
        </mxCell>
        <mxCell id="RQYkobvXV-19EqAcjDfM-8" value="结束" style="rounded=1;whiteSpace=wrap;html=1;" vertex="1" parent="1">
          <mxGeometry x="501" y="373" width="50" height="20" as="geometry" />
        </mxCell>
        <mxCell id="RQYkobvXV-19EqAcjDfM-29" style="edgeStyle=orthogonalEdgeStyle;rounded=0;orthogonalLoop=1;jettySize=auto;html=1;exitX=0;exitY=0.5;exitDx=0;exitDy=0;entryX=1;entryY=0.5;entryDx=0;entryDy=0;entryPerimeter=0;dashed=1;endArrow=oval;endFill=0;" edge="1" parent="1" source="RQYkobvXV-19EqAcjDfM-5" target="RQYkobvXV-19EqAcjDfM-22">
          <mxGeometry relative="1" as="geometry">
            <mxPoint x="270" y="536" as="sourcePoint" />
          </mxGeometry>
        </mxCell>
        <mxCell id="RQYkobvXV-19EqAcjDfM-22" value="&lt;font style=&quot;font-size: 8px;&quot;&gt;T 时刻行情数据的报价逻辑&lt;/font&gt;" style="shape=tape;whiteSpace=wrap;html=1;" vertex="1" parent="1">
          <mxGeometry x="102" y="559" width="110" height="73.5" as="geometry" />
        </mxCell>
        <mxCell id="RQYkobvXV-19EqAcjDfM-23" value="&lt;font style=&quot;font-size: 8px;&quot;&gt;T-1 时刻行情数据的报价逻辑&lt;/font&gt;" style="shape=tape;whiteSpace=wrap;html=1;" vertex="1" parent="1">
          <mxGeometry x="102" y="500" width="110" height="73.5" as="geometry" />
        </mxCell>
        <mxCell id="RQYkobvXV-19EqAcjDfM-24" value="&lt;span style=&quot;font-size: 8px;&quot;&gt;...&lt;/span&gt;" style="shape=tape;whiteSpace=wrap;html=1;" vertex="1" parent="1">
          <mxGeometry x="102" y="440" width="110" height="73.5" as="geometry" />
        </mxCell>
        <mxCell id="RQYkobvXV-19EqAcjDfM-25" value="&lt;font style=&quot;font-size: 8px;&quot;&gt;T-n 时刻行情数据的报价逻辑&lt;/font&gt;" style="shape=tape;whiteSpace=wrap;html=1;" vertex="1" parent="1">
          <mxGeometry x="102" y="381" width="110" height="73.5" as="geometry" />
        </mxCell>
      </root>
    </mxGraphModel>
  </diagram>
</mxfile>
